---------------------------
| M O V I E   information |
---------------------------
  Title................................: The Confession
  International title(s)...............: N/A
  Director.............................: Brad Mirman
  Release year.........................: 2012
  Language.............................: English
  Runtime..............................: 1hr 2min
  Genre................................: Drama
  Color................................: Yes
  IMDb rating..........................: 8.7/10
  Link 1...............................: http://www.imdb.com/title/tt1809362/
  Link 2...............................: http://www.amazon.com/Confession-John-Hurt/dp/B005TZFZ5Q/ref=sr_1_1?s=movies-tv&ie=UTF8&qid=1327444653&sr=1-1
  Studio...............................: New Video Group
  Subtitles............................: No

Source (DVD/DVDR 5,9)..................: Apple
Total movie's files size...............: 593 MB

-------------------
| Video Attribute |
-------------------
  Video compression mode...............: N/A
  TV system (NTSC/PAL).................: N/A
  Aspect ratio.........................: N/A
  Source picture resolution............: N/A
  Frame rate...........................: N/A

-------- Subpicture attributes --------
  Number of subtitles..................: N/A
  Subtitle language/s..................: N/A

-------------------
| Audio Attribute |
-------------------
  Audio coding mode....................: N/A
  Sampling rate........................: N/A
  Number of audio channels.............: N/A
  Bitrate..............................: N/A
  Number of audio streams..............: N/A
  Audio stream language/s..............: N/A

-------------------
| RIP Information |
-------------------
  Video (Untouched/Re-encoded-%).......: N/A
  Audio (Untouched/Stripped)...........: N/A
  Menus (Untouched/Stripped)...........: N/A
  Extras (Untouched/Stripped/N/A)......: N/A
  Subtitles (Untouched/Stripped/Added).: N/A

--------------------
| Post Information |
--------------------
  Posted by............................: N/A
  Compression method (RAR/ZIP).........: N/A
  File validation......................: N/A
  Part size............................: N/A
  Name of the part files...............: N/A
  Number of files......................: N/A
  Total files size.....................: N/A
  Burn tested..........................: N/A
  Date of post (d.m.y).................: 24.1.2012
  Posted to............................: N/A
  Re-posting policy....................: N/A

----------------
| Plot summary |
----------------
A unique story of redemption and an exploration of good and evil featuring a hit man and a priest. 

----------------
| Release note |
----------------
General

Format                           : AVI
Format/Info                      : Audio Video Interleave
File size                        : 593 MiB
Duration                         : 1h 2mn
Overall bit rate                 : 1 330 Kbps

Video
ID                               : 0
Format                           : MPEG-4 Visual
Format profile                   : Simple@L3
Format settings, BVOP            : No
Format settings, QPel            : No
Format settings, GMC             : No warppoints
Format settings, Matrix          : Default (H.263)
Codec ID                         : XVID
Codec ID/Hint                    : XviD
Duration                         : 1h 2mn
Bit rate                         : 1 156 Kbps
Width                            : 640 pixels
Height                           : 416 pixels
Display aspect ratio             : 3:2
Frame rate                       : 30.000 fps
Color space                      : YUV
Chroma subsampling               : 4:2:0
Bit depth                        : 8 bits
Scan type                        : Progressive
Compression mode                 : Lossy
Bits/(Pixel*Frame)               : 0.145
Stream size                      : 516 MiB (87%)
Writing library                  : XviD 1.1.2 (UTC 2006-11-01)

Audio
ID                               : 1
Format                           : MPEG Audio
Format version                   : Version 1
Format profile                   : Layer 3
Mode                             : Joint stereo
Mode extension                   : MS Stereo
Codec ID                         : 55
Codec ID/Hint                    : MP3
Duration                         : 1h 2mn
Bit rate mode                    : Constant
Bit rate                         : 160 Kbps
Channel(s)                       : 2 channels
Sampling rate                    : 48.0 KHz
Compression mode                 : Lossy
Stream size                      : 71.4 MiB (12%)
Alignment                        : Split accross interleaves
Interleave, duration             : 24 ms (0.72 video frame)



---------------
| Ripper note |
---------------
This was made using Handbrake.

I'm a solo act and this is a Kralcx Production

Hope you Enjoy!!


------------------------------------------------------------------------------------------
This file was created with ArtCine NFO Creator 2.0. 
ArtCine NFO Creator is a program, which can read movie data from IMDb and can also
read IFO files from your hard disk or DVD drive for more technical data about movie.
Visit http://www.nfo-creator.com for more information and program updates